<mxfile host="app.diagrams.net" modified="2024-01-10T18:33:13.296Z" agent="Mozilla/5.0 (Windows NT 10.0; Win64; x64; rv:121.0) Gecko/20100101 Firefox/121.0" etag="TXhDRS-4MelQsAPRj7gk" version="21.3.7" type="device">
  <diagram id="BC79CML7Z33H3tk79keH" name="Strona-1">
    <mxGraphModel dx="1434" dy="746" grid="1" gridSize="10" guides="1" tooltips="1" connect="1" arrows="1" fold="1" page="1" pageScale="1" pageWidth="827" pageHeight="1169" math="0" shadow="0">
      <root>
        <mxCell id="0" />
        <mxCell id="1" parent="0" />
        <mxCell id="yx_y9nf9KPECeYAKMQg5-1" value="" style="whiteSpace=wrap;html=1;aspect=fixed;" parent="1" vertex="1">
          <mxGeometry x="110" y="60" width="680" height="680" as="geometry" />
        </mxCell>
        <mxCell id="yx_y9nf9KPECeYAKMQg5-2" value="&lt;div align=&quot;center&quot;&gt;&lt;b style=&quot;font-size: 18px;&quot;&gt;FarmGuider&lt;/b&gt;&lt;br&gt;&lt;/div&gt;" style="text;html=1;strokeColor=none;fillColor=none;spacing=5;spacingTop=-20;whiteSpace=wrap;overflow=hidden;rounded=0;align=center;" parent="1" vertex="1">
          <mxGeometry x="382.5" y="80" width="135" height="30" as="geometry" />
        </mxCell>
        <mxCell id="yx_y9nf9KPECeYAKMQg5-28" style="edgeStyle=orthogonalEdgeStyle;rounded=0;orthogonalLoop=1;jettySize=auto;html=1;fontSize=12;endArrow=none;endFill=0;entryX=0.5;entryY=1;entryDx=0;entryDy=0;" parent="1" target="yx_y9nf9KPECeYAKMQg5-17" edge="1">
          <mxGeometry relative="1" as="geometry">
            <mxPoint x="80" y="240" as="sourcePoint" />
            <Array as="points">
              <mxPoint x="260" y="240" />
            </Array>
          </mxGeometry>
        </mxCell>
        <mxCell id="yx_y9nf9KPECeYAKMQg5-31" style="edgeStyle=orthogonalEdgeStyle;rounded=0;orthogonalLoop=1;jettySize=auto;html=1;fontSize=12;endArrow=none;endFill=0;entryX=0.5;entryY=1;entryDx=0;entryDy=0;" parent="1" target="VzAytHsf84ptwid28OPW-5" edge="1">
          <mxGeometry relative="1" as="geometry">
            <mxPoint x="80" y="480" as="sourcePoint" />
            <Array as="points">
              <mxPoint x="430" y="480" />
            </Array>
            <mxPoint x="596.9052498068888" y="350" as="targetPoint" />
          </mxGeometry>
        </mxCell>
        <mxCell id="yx_y9nf9KPECeYAKMQg5-32" style="edgeStyle=orthogonalEdgeStyle;rounded=0;orthogonalLoop=1;jettySize=auto;html=1;entryX=0;entryY=0;entryDx=0;entryDy=0;fontSize=12;endArrow=none;endFill=0;" parent="1" target="yx_y9nf9KPECeYAKMQg5-13" edge="1">
          <mxGeometry relative="1" as="geometry">
            <mxPoint x="80" y="260" as="sourcePoint" />
            <Array as="points">
              <mxPoint x="618" y="260" />
            </Array>
          </mxGeometry>
        </mxCell>
        <mxCell id="yx_y9nf9KPECeYAKMQg5-4" value="Gość" style="shape=umlActor;verticalLabelPosition=bottom;verticalAlign=top;html=1;outlineConnect=0;fontSize=18;" parent="1" vertex="1">
          <mxGeometry x="20" y="190" width="50" height="90" as="geometry" />
        </mxCell>
        <mxCell id="yx_y9nf9KPECeYAKMQg5-35" style="edgeStyle=orthogonalEdgeStyle;rounded=0;orthogonalLoop=1;jettySize=auto;html=1;fontSize=12;endArrow=none;endFill=0;exitX=0.5;exitY=1;exitDx=0;exitDy=0;" parent="1" source="yx_y9nf9KPECeYAKMQg5-11" edge="1">
          <mxGeometry relative="1" as="geometry">
            <mxPoint x="80" y="490" as="targetPoint" />
            <Array as="points">
              <mxPoint x="535" y="490" />
            </Array>
          </mxGeometry>
        </mxCell>
        <mxCell id="yx_y9nf9KPECeYAKMQg5-11" value="&lt;font style=&quot;font-size: 12px;&quot;&gt;Edycja danych użytkownika&lt;br&gt;&lt;/font&gt;" style="ellipse;whiteSpace=wrap;html=1;fontSize=18;" parent="1" vertex="1">
          <mxGeometry x="470" y="400" width="130" height="80" as="geometry" />
        </mxCell>
        <mxCell id="yx_y9nf9KPECeYAKMQg5-13" value="&lt;font style=&quot;font-size: 12px;&quot;&gt;Zmiana języka interfejsu&lt;br&gt;&lt;/font&gt;" style="ellipse;whiteSpace=wrap;html=1;fontSize=18;" parent="1" vertex="1">
          <mxGeometry x="600" y="240" width="120" height="80" as="geometry" />
        </mxCell>
        <mxCell id="yx_y9nf9KPECeYAKMQg5-17" value="&lt;font style=&quot;font-size: 12px;&quot;&gt;Rejestracja użytkownika&lt;br&gt;&lt;/font&gt;" style="ellipse;whiteSpace=wrap;html=1;fontSize=18;" parent="1" vertex="1">
          <mxGeometry x="200" y="120" width="120" height="80" as="geometry" />
        </mxCell>
        <mxCell id="VzAytHsf84ptwid28OPW-2" value="&lt;font style=&quot;font-size: 12px;&quot;&gt;Logowanie użytkownika&lt;br&gt;&lt;/font&gt;" style="ellipse;whiteSpace=wrap;html=1;fontSize=18;" vertex="1" parent="1">
          <mxGeometry x="370" y="120" width="120" height="80" as="geometry" />
        </mxCell>
        <mxCell id="VzAytHsf84ptwid28OPW-4" style="edgeStyle=orthogonalEdgeStyle;rounded=0;orthogonalLoop=1;jettySize=auto;html=1;fontSize=12;endArrow=none;endFill=0;entryX=0.5;entryY=1;entryDx=0;entryDy=0;" edge="1" parent="1" target="VzAytHsf84ptwid28OPW-2">
          <mxGeometry relative="1" as="geometry">
            <mxPoint x="80" y="250" as="sourcePoint" />
            <Array as="points">
              <mxPoint x="430" y="250" />
            </Array>
            <mxPoint x="280" y="210" as="targetPoint" />
          </mxGeometry>
        </mxCell>
        <mxCell id="VzAytHsf84ptwid28OPW-5" value="&lt;font style=&quot;font-size: 12px;&quot;&gt;Wylogowanie użytkownika&lt;br&gt;&lt;/font&gt;" style="ellipse;whiteSpace=wrap;html=1;fontSize=18;" vertex="1" parent="1">
          <mxGeometry x="370" y="320" width="120" height="80" as="geometry" />
        </mxCell>
        <mxCell id="VzAytHsf84ptwid28OPW-6" value="Użytkownik" style="shape=umlActor;verticalLabelPosition=bottom;verticalAlign=top;html=1;outlineConnect=0;fontSize=18;" vertex="1" parent="1">
          <mxGeometry x="20" y="445" width="50" height="90" as="geometry" />
        </mxCell>
        <mxCell id="VzAytHsf84ptwid28OPW-8" value="&lt;font style=&quot;font-size: 12px;&quot;&gt;Zmiana hasła&lt;/font&gt;" style="ellipse;whiteSpace=wrap;html=1;fontSize=18;" vertex="1" parent="1">
          <mxGeometry x="620" y="400" width="130" height="80" as="geometry" />
        </mxCell>
        <mxCell id="VzAytHsf84ptwid28OPW-9" style="edgeStyle=orthogonalEdgeStyle;rounded=0;orthogonalLoop=1;jettySize=auto;html=1;fontSize=12;endArrow=none;endFill=0;exitX=0.5;exitY=1;exitDx=0;exitDy=0;" edge="1" parent="1" source="VzAytHsf84ptwid28OPW-8">
          <mxGeometry relative="1" as="geometry">
            <mxPoint x="80" y="500" as="targetPoint" />
            <Array as="points">
              <mxPoint x="685" y="500" />
            </Array>
            <mxPoint x="545" y="490" as="sourcePoint" />
          </mxGeometry>
        </mxCell>
        <mxCell id="VzAytHsf84ptwid28OPW-10" value="&lt;font style=&quot;font-size: 12px;&quot;&gt;Usunięcie konta&lt;br&gt;&lt;/font&gt;" style="ellipse;whiteSpace=wrap;html=1;fontSize=18;" vertex="1" parent="1">
          <mxGeometry x="620" y="510" width="130" height="80" as="geometry" />
        </mxCell>
        <mxCell id="VzAytHsf84ptwid28OPW-11" style="edgeStyle=orthogonalEdgeStyle;rounded=0;orthogonalLoop=1;jettySize=auto;html=1;fontSize=12;endArrow=none;endFill=0;exitX=0;exitY=0.5;exitDx=0;exitDy=0;" edge="1" parent="1" source="VzAytHsf84ptwid28OPW-10">
          <mxGeometry relative="1" as="geometry">
            <mxPoint x="80" y="510" as="targetPoint" />
            <Array as="points">
              <mxPoint x="430" y="550" />
              <mxPoint x="430" y="510" />
            </Array>
            <mxPoint x="695" y="490" as="sourcePoint" />
          </mxGeometry>
        </mxCell>
        <mxCell id="VzAytHsf84ptwid28OPW-12" value="&lt;font style=&quot;font-size: 12px;&quot;&gt;Zarządzanie hodowlą (Moduł hodowlany)&lt;br&gt;&lt;/font&gt;" style="ellipse;whiteSpace=wrap;html=1;fontSize=18;" vertex="1" parent="1">
          <mxGeometry x="260" y="530" width="140" height="80" as="geometry" />
        </mxCell>
        <mxCell id="VzAytHsf84ptwid28OPW-13" value="&lt;font style=&quot;font-size: 12px;&quot;&gt;Zarządzanie uprawami (Moduł uprawowy)&lt;br&gt;&lt;/font&gt;" style="ellipse;whiteSpace=wrap;html=1;fontSize=18;" vertex="1" parent="1">
          <mxGeometry x="260" y="630" width="140" height="80" as="geometry" />
        </mxCell>
        <mxCell id="VzAytHsf84ptwid28OPW-14" style="edgeStyle=orthogonalEdgeStyle;rounded=0;orthogonalLoop=1;jettySize=auto;html=1;fontSize=12;endArrow=none;endFill=0;exitX=0;exitY=0.5;exitDx=0;exitDy=0;" edge="1" parent="1" source="VzAytHsf84ptwid28OPW-12">
          <mxGeometry relative="1" as="geometry">
            <mxPoint x="80" y="520" as="targetPoint" />
            <Array as="points">
              <mxPoint x="190" y="570" />
              <mxPoint x="190" y="520" />
            </Array>
            <mxPoint x="630" y="560" as="sourcePoint" />
          </mxGeometry>
        </mxCell>
        <mxCell id="VzAytHsf84ptwid28OPW-15" style="edgeStyle=orthogonalEdgeStyle;rounded=0;orthogonalLoop=1;jettySize=auto;html=1;fontSize=12;endArrow=none;endFill=0;exitX=0;exitY=0.5;exitDx=0;exitDy=0;" edge="1" parent="1" source="VzAytHsf84ptwid28OPW-13">
          <mxGeometry relative="1" as="geometry">
            <mxPoint x="80" y="530" as="targetPoint" />
            <Array as="points">
              <mxPoint x="180" y="670" />
              <mxPoint x="180" y="530" />
            </Array>
            <mxPoint x="240" y="580" as="sourcePoint" />
          </mxGeometry>
        </mxCell>
        <mxCell id="VzAytHsf84ptwid28OPW-16" style="edgeStyle=orthogonalEdgeStyle;rounded=0;orthogonalLoop=1;jettySize=auto;html=1;entryX=0;entryY=1;entryDx=0;entryDy=0;fontSize=12;endArrow=none;endFill=0;" edge="1" parent="1" target="yx_y9nf9KPECeYAKMQg5-13">
          <mxGeometry relative="1" as="geometry">
            <mxPoint x="80" y="470" as="sourcePoint" />
            <Array as="points">
              <mxPoint x="260" y="470" />
              <mxPoint x="260" y="308" />
            </Array>
            <mxPoint x="610" y="270" as="targetPoint" />
          </mxGeometry>
        </mxCell>
      </root>
    </mxGraphModel>
  </diagram>
</mxfile>
